# xmcd
#
# Track frame offsets:
#	150
#	18105
#	34313
#	54949
#	72444
#	90204
#	106905
#	125911
#	141044
#	157891
#	178270
#	196232
#	212961
#
# Disc length: 3112 seconds
#
# Revision: 0
# Processed by: cddbd v1.5.2PL0 Copyright (c) Steve Scherf et al.
# Submitted via: EZCDAudioConverter 2.0.5.1
#
DISCID=b00c260d
DTITLE=王筝 - 我们都是好孩子
DYEAR=2006
DGENRE=
TTITLE0=我们都是好孩子
TTITLE1=想着你 睡不着
TTITLE2=一杯咖啡到天亮
TTITLE3=衬衫
TTITLE4=我的心你什么时候还我
TTITLE5=明天就要嫁给他了
TTITLE6=对你说
TTITLE7=我的乖
TTITLE8=想把我唱给你听
TTITLE9=爱你mon chéri
TTITLE10=我们都是好孩子 (伴奏)
TTITLE11=明天就要嫁给他了 (伴奏)
TTITLE12=一杯咖啡到天亮 (伴奏)
EXTD=
EXTT0=
EXTT1=
EXTT2=
EXTT3=
EXTT4=
EXTT5=
EXTT6=
EXTT7=
EXTT8=
EXTT9=
EXTT10=
EXTT11=
EXTT12=
PLAYORDER=
